# xmcd CD database file
#
# Track frame offsets:
#	150
#	16048
#	37598
#	57005
#	72420
#	91820
#	109150
#	129290
#	147045
#	163108
#	184420
#	203413
#
# Disc length: 3001 seconds
#
# Revision: 0
# Processed by: cddbd v1.4PL0 Copyright (c) Steve Scherf et al.
# Submitted via: Feurio! 1.61 - http://www.feurio.com
#
DISCID=910bb70c
DTITLE=Grady Gaines - Full Gain
DYEAR=1900
DGENRE=
TTITLE0=Mr.Blues In The Sky
TTITLE1=I've Been Out There
TTITLE2=If I Don't Get Involved (I Can't Get Hurt)
TTITLE3=Full Gain
TTITLE4=Shaggy Dog
TTITLE5=Soul Twist
TTITLE6=If I Loved You A Little Less
TTITLE7=Your Girlfriend
TTITLE8=Stealing Love
TTITLE9=There Is Something On Your Mind
TTITLE10=Gangster Of The Blues
TTITLE11=Miss Lucy Brown
EXTD=
EXTT0=
EXTT1=
EXTT2=
EXTT3=
EXTT4=
EXTT5=
EXTT6=
EXTT7=
EXTT8=
EXTT9=
EXTT10=
EXTT11=
PLAYORDER=
